<?xml version="1.0" encoding="utf-8"?><svg version="1.1" id="Layer_1" xmlns="http://www.w3.org/2000/svg" xmlns:xlink="http://www.w3.org/1999/xlink" x="0px" y="0px" viewBox="0 0 115.28 122.88" style="enable-background:new 0 0 115.28 122.88" xml:space="preserve"><style type="text/css">.st0{fill-rule:evenodd;clip-rule:evenodd;}</style><g><path class="st0" d="M25.38,57h64.88V37.34H69.59c-2.17,0-5.19-1.17-6.62-2.6c-1.43-1.43-2.3-4.01-2.3-6.17V7.64l0,0H8.15 c-0.18,0-0.32,0.09-0.41,0.18C7.59,7.92,7.55,8.05,7.55,8.24v106.45c0,0.14,0.09,0.32,0.18,0.41c0.09,0.14,0.28,0.18,0.41,0.18 c22.78,0,58.09,0,81.51,0c0.18,0,0.17-0.09,0.27-0.18c0.14-0.09,0.33-0.28,0.33-0.41v-11.16H25.38c-4.14,0-7.56-3.4-7.56-7.56 V64.55C17.82,60.4,21.22,57,25.38,57L25.38,57z M29.63,67.49h14.56c2.42,0,4.28,0.6,5.58,1.8c1.3,1.2,1.95,2.69,1.95,4.46 c0,1.49-0.46,2.76-1.39,3.82c-0.61,0.71-1.52,1.27-2.71,1.69c1.81,0.43,3.13,1.18,3.99,2.24c0.85,1.06,1.28,2.39,1.28,3.99 c0,1.31-0.3,2.48-0.91,3.52c-0.61,1.04-1.44,1.86-2.49,2.47c-0.66,0.37-1.64,0.65-2.96,0.82c-1.75,0.23-2.91,0.35-3.48,0.35H29.63 V67.49L29.63,67.49z M37.46,77.36h3.39c1.21,0,2.06-0.21,2.53-0.63c0.47-0.42,0.71-1.02,0.71-1.81c0-0.73-0.24-1.31-0.71-1.72 c-0.47-0.42-1.31-0.62-2.48-0.62h-3.44V77.36L37.46,77.36z M37.46,87.23h3.96c1.34,0,2.28-0.24,2.83-0.71 c0.55-0.47,0.83-1.11,0.83-1.91c0-0.74-0.27-1.34-0.81-1.79c-0.54-0.45-1.5-0.68-2.86-0.68h-3.95V87.23L37.46,87.23z M71.26,88.5 h-8.8l-1.26,4.14h-7.93l9.47-25.15h8.51l9.42,25.15h-8.14L71.26,88.5L71.26,88.5z M69.61,83.05l-2.75-9.04l-2.76,9.04H69.61 L69.61,83.05z M78.41,67.49h23.64v6.22h-7.94v18.93h-7.76V73.71h-7.94V67.49L78.41,67.49z M97.79,57h9.93 c4.16,0,7.56,3.41,7.56,7.56v31.42c0,4.15-3.41,7.56-7.56,7.56h-9.93v13.55c0,1.61-0.65,3.04-1.7,4.1c-1.06,1.06-2.49,1.7-4.1,1.7 c-29.44,0-56.59,0-86.18,0c-1.61,0-3.04-0.64-4.1-1.7c-1.06-1.06-1.7-2.49-1.7-4.1V5.85c0-1.61,0.65-3.04,1.7-4.1 c1.06-1.06,2.53-1.7,4.1-1.7h58.72C64.66,0,64.8,0,64.94,0c0.64,0,1.29,0.28,1.75,0.69h0.09c0.09,0.05,0.14,0.09,0.23,0.18 l29.99,30.36c0.51,0.51,0.88,1.2,0.88,1.98c0,0.23-0.05,0.41-0.09,0.65V57L97.79,57z M67.52,27.97V8.94l21.43,21.7H70.19 c-0.74,0-1.38-0.32-1.89-0.78C67.84,29.4,67.52,28.71,67.52,27.97L67.52,27.97z"/></g></svg>